<?xml version="1.0" standalone="no"?>
<!DOCTYPE svg PUBLIC "-//W3C//DTD SVG 20010904//EN"
 "http://www.w3.org/TR/2001/REC-SVG-20010904/DTD/svg10.dtd">
<svg version="1.0" xmlns="http://www.w3.org/2000/svg"
 width="260.000000pt" height="260.000000pt" viewBox="0 0 260.000000 260.000000"
 preserveAspectRatio="xMidYMid meet">
<metadata>
Created by potrace 1.14, written by Peter Selinger 2001-2017
</metadata>
<g transform="translate(0.000000,260.000000) scale(0.100000,-0.100000)"
fill="#000000" stroke="none">
<path d="M1132 2590 c-549 -78 -984 -480 -1103 -1020 -31 -138 -33 -389 -5
-520 55 -253 163 -462 333 -641 188 -197 409 -322 673 -380 138 -31 389 -33
520 -5 253 55 462 163 641 333 197 188 322 409 380 673 31 138 33 389 5 520
-55 253 -163 462 -333 641 -184 193 -399 317 -653 375 -118 28 -348 40 -458
24z m-121 -699 c55 -55 51 -63 -181 -341 -116 -139 -208 -256 -205 -260 3 -5
93 -117 200 -250 166 -206 195 -247 195 -275 0 -47 -8 -64 -41 -80 -38 -20
-62 -19 -92 5 -14 11 -125 144 -246 295 -201 249 -221 278 -221 312 0 35 20
62 221 303 121 146 233 277 250 293 40 37 82 36 120 -2z m727 12 c11 -10 120
-143 241 -297 184 -231 221 -284 221 -310 0 -27 -36 -76 -237 -316 -131 -157
-250 -291 -264 -299 -53 -30 -119 13 -119 77 0 35 18 59 206 285 113 136 204
253 201 260 -3 6 -91 120 -196 252 -172 217 -191 244 -191 278 0 72 85 115
138 70z"/>
</g>
</svg>
